<?xml version="1.0" ?><svg width="50px" height="50px" viewBox="0 0 50 50" data-name="Layer 1" id="Layer_1" xmlns="http://www.w3.org/2000/svg"><defs><style>.cls-1{fill:#231f20;}.cls-2{fill:#ffba50;}.cls-3{fill:#ff8e5a;}.cls-4{fill:#00a1d3;}</style></defs><title/><path class="cls-1" d="M45,4.5H37.391a.5.5,0,0,0-.438.259L35.036,8.232H25.344a.5.5,0,0,0-.5.5v3.641H15.675a.5.5,0,0,0-.5.5v5.213H7.013a.5.5,0,0,0-.5.5v4.449c-1.043.1-2.013.528-2.013,1.334S5.47,25.6,6.513,25.7v4.755c-1.043.1-2.013.528-2.013,1.334s.97,1.233,2.013,1.335v4.754c-1.043.1-2.013.527-2.013,1.335s.97,1.232,2.013,1.334V45a.5.5,0,0,0,.5.5H26.669a.5.5,0,0,0,.5-.5V39.787h8.162a.5.5,0,0,0,.5-.5V31.914H45a.5.5,0,0,0,.5-.5V5A.5.5,0,0,0,45,4.5ZM6.513,39.54a3.184,3.184,0,0,1-1.022-.28,1.713,1.713,0,0,1,1.022-.367Zm0-7.423a3.17,3.17,0,0,1-1.022-.281,1.721,1.721,0,0,1,1.022-.365Zm0-7.423a3.119,3.119,0,0,1-1.022-.282,1.728,1.728,0,0,1,1.022-.365Z"/><path class="cls-2" d="M26.169,44.5H7.513V40.549c1.037-.1,2-.529,2-1.332a.515.515,0,0,0-.5-.522.479.479,0,0,0-.5.479,1.7,1.7,0,0,1-1.008.364V33.126c1.037-.1,2-.529,2-1.333a.516.516,0,0,0-.5-.522.479.479,0,0,0-.5.479,1.686,1.686,0,0,1-1.008.365V25.7c1.037-.1,2-.529,2-1.333a.515.515,0,0,0-.5-.521.478.478,0,0,0-.5.478,1.691,1.691,0,0,1-1.008.366V19.086H26.169Z"/><path class="cls-3" d="M34.831,38.787H27.169v-20.2a.5.5,0,0,0-.5-.5H16.175V13.373H34.831Z"/><path class="cls-4" d="M44.5,30.914H35.831V12.873a.5.5,0,0,0-.5-.5H25.844V9.232h9.487a.5.5,0,0,0,.438-.258L37.686,5.5H44.5Z"/></svg>