<svg width="126" height="32" viewBox="0 0 126 32" fill="none" xmlns="http://www.w3.org/2000/svg">
<path d="M46.7939 15.6069C46.7939 13.8316 47.1903 12.4113 47.9831 11.3548C48.7758 10.2982 49.8615 9.76997 51.2402 9.76997C52.3431 9.76997 53.2565 10.1857 53.9803 11.017V5.20605H57.022V21.4006H54.2819L54.1354 20.1882C53.3771 21.1408 52.4121 21.6085 51.223 21.6085C49.8874 21.6085 48.8189 21.0802 48.0089 20.0236C47.1989 18.9671 46.7939 17.4949 46.7939 15.6069ZM49.827 15.8321C49.827 16.906 50.008 17.72 50.3871 18.2916C50.7576 18.8632 51.2919 19.149 51.9985 19.149C52.9377 19.149 53.5926 18.7506 53.9803 17.9539V13.4419C53.6012 12.6452 52.9463 12.2468 52.0157 12.2468C50.5595 12.2554 49.827 13.4506 49.827 15.8321Z" fill="white"/>
<path d="M59.0312 7.03331C59.0312 6.57432 59.1864 6.20194 59.4879 5.90749C59.7895 5.61304 60.2031 5.46582 60.7288 5.46582C61.2458 5.46582 61.6594 5.61304 61.9696 5.90749C62.2798 6.20194 62.4349 6.58298 62.4349 7.03331C62.4349 7.50096 62.2798 7.87335 61.9696 8.1678C61.6594 8.46225 61.2458 8.60947 60.7374 8.60947C60.229 8.60947 59.8154 8.46225 59.5052 8.1678C59.1864 7.88201 59.0312 7.50096 59.0312 7.03331ZM62.2539 21.4006H59.2122V9.98644H62.2539V21.4006Z" fill="white"/>
<path d="M70.5762 18.2486C70.5762 17.8762 70.3952 17.5818 70.0247 17.3653C69.6542 17.1488 69.0683 16.9582 68.2583 16.7937C65.5612 16.2221 64.2084 15.0703 64.2084 13.3383C64.2084 12.325 64.622 11.485 65.4578 10.8008C66.2937 10.1253 67.388 9.7876 68.7322 9.7876C70.1712 9.7876 71.3258 10.1253 72.1875 10.8095C73.0492 11.4937 73.48 12.377 73.48 13.4682H70.4469C70.4469 13.0352 70.3091 12.6714 70.0247 12.3857C69.749 12.0999 69.3095 11.9613 68.715 11.9613C68.2066 11.9613 67.8102 12.0739 67.5259 12.3077C67.2501 12.5415 67.1036 12.836 67.1036 13.1911C67.1036 13.5288 67.2587 13.7973 67.5776 14.0051C67.8964 14.213 68.4306 14.3948 69.1889 14.542C69.9472 14.6893 70.5762 14.8625 71.1018 15.053C72.7045 15.6419 73.5059 16.6638 73.5059 18.1187C73.5059 19.1579 73.0578 19.998 72.1703 20.6475C71.2828 21.2883 70.1367 21.6088 68.7322 21.6088C67.7844 21.6088 66.9399 21.4356 66.1989 21.0978C65.4578 20.7601 64.8805 20.2924 64.4669 19.6949C64.0447 19.0973 63.8379 18.4564 63.8379 17.7723H66.7245C66.7504 18.3092 66.9485 18.7249 67.3191 19.0194C67.6896 19.3051 68.1894 19.4524 68.8098 19.4524C69.3871 19.4524 69.8265 19.3398 70.1281 19.1233C70.4211 18.8895 70.5762 18.6037 70.5762 18.2486Z" fill="white"/>
<path d="M79.8735 19.1486C80.4335 19.1486 80.8902 18.9928 81.2349 18.681C81.5882 18.3692 81.7691 17.9622 81.7778 17.4512H84.6213C84.6127 18.222 84.4059 18.9321 83.9923 19.573C83.5787 20.2138 83.0186 20.7161 82.2948 21.0712C81.5796 21.4263 80.7868 21.5995 79.9165 21.5995C78.2966 21.5995 77.0127 21.0799 76.0735 20.0406C75.1342 19.0014 74.6689 17.5725 74.6689 15.7452V15.5547C74.6689 13.7966 75.1343 12.3937 76.0649 11.3458C76.9955 10.2979 78.2707 9.77832 79.8907 9.77832C81.3125 9.77832 82.4499 10.1853 83.3029 10.9994C84.156 11.8135 84.5954 12.896 84.6127 14.2383H81.7691C81.7519 13.6408 81.571 13.1645 81.2263 12.7921C80.873 12.4197 80.4163 12.2378 79.839 12.2378C79.1324 12.2378 78.5982 12.4976 78.2363 13.0172C77.8744 13.5368 77.6934 14.3769 77.6934 15.5373V15.8578C77.6934 17.0356 77.8744 17.8756 78.2277 18.3952C78.5982 18.8975 79.141 19.1486 79.8735 19.1486Z" fill="white"/>
<path d="M85.5612 15.5899C85.5612 14.4554 85.7766 13.4509 86.2074 12.5675C86.6383 11.6842 87.2673 11 88.0773 10.5151C88.8959 10.0301 89.8351 9.7876 90.9122 9.7876C92.446 9.7876 93.6954 10.2552 94.6605 11.1992C95.6255 12.1432 96.1684 13.4162 96.2804 15.0357L96.2976 15.8151C96.2976 17.5644 95.8151 18.9674 94.8414 20.0239C93.8677 21.0805 92.5666 21.6088 90.9294 21.6088C89.2922 21.6088 87.9911 21.0805 87.0088 20.0239C86.0351 18.9674 85.5439 17.5385 85.5439 15.7198V15.5899H85.5612ZM88.5943 15.8064C88.5943 16.889 88.8011 17.7203 89.2061 18.2919C89.6111 18.8635 90.1884 19.1493 90.9466 19.1493C91.6791 19.1493 92.2564 18.8635 92.67 18.3006C93.0836 17.7376 93.2904 16.8283 93.2904 15.5813C93.2904 14.5161 93.0836 13.6933 92.67 13.1131C92.2564 12.5329 91.6791 12.2384 90.9294 12.2384C90.1884 12.2384 89.6111 12.5329 89.2061 13.1131C88.7925 13.6847 88.5943 14.5853 88.5943 15.8064Z" fill="white"/>
<path d="M101.95 17.6776L104.061 9.9873H107.232L103.406 21.3928H100.502L96.668 9.9873H99.8389L101.95 17.6776Z" fill="white"/>
<path d="M113.324 21.608C111.661 21.608 110.308 21.0971 109.257 20.0665C108.214 19.0446 107.688 17.6763 107.688 15.9616V15.6671C107.688 14.524 107.913 13.4934 108.352 12.5928C108.791 11.6921 109.42 10.9906 110.222 10.5056C111.032 10.0207 111.954 9.76953 112.988 9.76953C114.539 9.76953 115.762 10.2632 116.65 11.2418C117.537 12.229 117.985 13.6233 117.985 15.4246V16.6804H110.756C110.851 17.4251 111.152 18.0227 111.644 18.473C112.135 18.9234 112.764 19.1485 113.513 19.1485C114.685 19.1485 115.59 18.7242 116.254 17.8755L117.744 19.5555C117.288 20.2051 116.676 20.7074 115.9 21.0711C115.125 21.4261 114.263 21.608 113.324 21.608ZM112.979 12.2377C112.376 12.2377 111.893 12.4455 111.514 12.8526C111.144 13.2596 110.903 13.8485 110.799 14.6106H115.013V14.3681C114.995 13.6926 114.815 13.1643 114.47 12.7919C114.117 12.4195 113.617 12.2377 112.979 12.2377Z" fill="white"/>
<path d="M125.767 12.844C125.353 12.7921 124.991 12.7574 124.673 12.7574C123.526 12.7574 122.777 13.1471 122.415 13.9266V21.3916H119.382V9.98616H122.243L122.329 11.3458C122.941 10.2979 123.776 9.77832 124.853 9.77832C125.19 9.77832 125.5 9.82162 125.801 9.91688L125.767 12.844Z" fill="white"/>
<path opacity="0.3" d="M26.7037 26.8382C20.6365 32.9489 10.8 32.9878 4.68122 26.9549C9.00568 31.1974 15.9377 31.1585 20.2235 26.8511C24.535 22.5049 24.535 15.46 20.2106 11.1268C15.8861 6.78049 8.8766 6.79347 4.56504 11.1397C0.29222 15.4341 0.266402 22.3881 4.47468 26.7344C-1.52793 20.5847 -1.4892 10.7246 4.57795 4.61385C10.6838 -1.53579 20.5849 -1.53579 26.7037 4.60088C32.8096 10.7375 32.8096 20.7015 26.7037 26.8382Z" fill="#4863F7"/>
<path opacity="0.6" d="M20.2231 26.838C15.9374 31.1453 9.00533 31.1842 4.68087 26.9418C4.64214 26.9028 4.61632 26.8769 4.57759 26.838L4.56469 26.825C7.10773 29.3679 11.2127 29.3679 13.7558 26.825C16.2859 24.2691 16.2859 20.1434 13.7558 17.5876C11.2127 15.0577 7.09482 15.0577 4.56469 17.6005C2.04746 20.1305 2.03455 24.2172 4.51305 26.7731C4.51305 26.7731 4.51305 26.7731 4.50014 26.7601C4.50014 26.7601 4.50014 26.7601 4.48723 26.7471L4.47432 26.7342L4.46142 26.7212C0.266043 22.3879 0.291861 15.4339 4.57759 11.1266C8.90206 6.78029 15.8986 6.78029 20.2231 11.1136C24.5476 15.4598 24.5476 22.5047 20.2231 26.838Z" fill="#4863F7"/>
<path opacity="0.4" d="M4.56637 26.8393C4.54001 26.813 4.51366 26.7866 4.4873 26.7603L4.50048 26.7734C4.52684 26.7998 4.55319 26.8261 4.56637 26.8393Z" fill="#4863F7"/>
<path d="M13.7566 26.8384C11.2265 29.3943 7.10856 29.3943 4.56552 26.8384C4.5397 26.8125 4.52679 26.7995 4.50098 26.7735C2.02248 24.2177 2.03539 20.1309 4.55261 17.601C7.08274 15.0451 11.2007 15.0451 13.7437 17.601C16.2867 20.1439 16.2867 24.2825 13.7566 26.8384Z" fill="#4863F7"/>
</svg>
