<?xml version="1.0" standalone="no"?>
<!DOCTYPE svg PUBLIC "-//W3C//DTD SVG 20010904//EN"
 "http://www.w3.org/TR/2001/REC-SVG-20010904/DTD/svg10.dtd">
<svg version="1.0" xmlns="http://www.w3.org/2000/svg"
 width="512.000000pt" height="512.000000pt" viewBox="0 0 512.000000 512.000000"
 preserveAspectRatio="xMidYMid meet">

<g transform="translate(0.000000,512.000000) scale(0.100000,-0.100000)"
fill="#000000" stroke="none">
<path d="M885 4865 l-25 -24 0 -1366 0 -1365 -98 0 c-123 0 -173 -22 -209 -90
l-23 -43 0 -564 c0 -617 -1 -605 59 -656 42 -35 89 -47 189 -47 l82 0 0 -215
c0 -216 0 -216 25 -240 l24 -25 1651 0 1651 0 24 25 c25 24 25 24 25 240 l0
215 83 0 c99 0 146 12 188 47 60 51 59 39 59 656 l0 564 -23 43 c-36 68 -86
90 -209 90 l-98 0 0 928 0 927 -469 463 -470 462 -1206 0 -1206 0 -24 -25z
m2325 -554 l0 -420 26 -20 c26 -20 37 -21 445 -21 l419 0 0 -870 0 -870 -1540
0 -1540 0 0 1310 0 1310 1095 0 1095 0 0 -419z m705 -230 l69 -71 -307 0 -307
0 0 301 0 301 238 -230 c130 -127 268 -262 307 -301z m513 -2668 l-3 -538
-1865 0 -1865 0 -3 538 -2 537 1870 0 1870 0 -2 -537z m-328 -863 l0 -160
-1540 0 -1540 0 0 160 0 160 1540 0 1540 0 0 -160z"/>
<path d="M2651 3443 c-15 -13 -65 -143 -166 -436 -80 -230 -145 -428 -145
-438 0 -11 11 -31 25 -44 31 -32 78 -33 108 -2 15 15 70 158 166 439 131 381
143 420 132 447 -20 48 -81 65 -120 34z"/>
<path d="M1724 3214 c-95 -98 -178 -191 -185 -206 -6 -15 -9 -38 -5 -50 3 -13
85 -105 183 -206 192 -197 203 -204 257 -161 20 15 26 29 26 57 0 34 -12 50
-140 184 l-140 146 140 146 c130 136 140 149 140 185 0 44 -21 68 -70 77 -32
7 -37 3 -206 -172z"/>
<path d="M3146 3369 c-20 -16 -26 -29 -26 -60 0 -36 9 -48 140 -185 l140 -146
-140 -146 c-129 -134 -140 -149 -140 -183 0 -29 6 -42 26 -58 54 -43 65 -36
257 161 98 101 180 193 183 206 4 12 1 35 -5 50 -7 15 -89 107 -184 205 -186
191 -197 198 -251 156z"/>
<path d="M3113 1790 c-12 -5 -26 -18 -32 -29 -7 -13 -11 -134 -11 -344 l0
-324 23 -21 c29 -27 77 -28 108 -3 22 18 24 27 27 140 l4 121 74 0 c116 0 161
15 220 75 40 40 54 62 64 103 26 109 -25 213 -130 268 -28 15 -63 19 -180 21
-80 2 -155 -1 -167 -7z m281 -161 c51 -23 55 -103 7 -128 -11 -6 -54 -11 -95
-11 l-76 0 0 75 0 75 70 0 c38 0 80 -5 94 -11z"/>
<path d="M1573 1770 c-53 -21 -54 -32 -51 -380 l3 -322 24 -19 c32 -26 82 -25
109 4 20 21 22 35 24 187 l3 165 49 -84 c57 -97 80 -121 116 -121 40 0 64 23
116 112 l49 83 5 -155 c3 -85 9 -163 14 -173 20 -42 93 -50 126 -15 19 21 20
34 20 346 0 188 -4 331 -10 341 -5 10 -23 24 -39 31 -53 22 -76 1 -178 -170
-51 -85 -96 -155 -100 -154 -5 0 -49 70 -100 154 -103 172 -125 192 -180 170z"/>
<path d="M2325 1770 c-12 -4 -26 -14 -32 -21 -31 -39 -26 -55 113 -365 76
-168 146 -317 156 -330 24 -30 86 -33 111 -6 26 29 287 620 287 651 0 44 -30
75 -74 75 -20 0 -43 -7 -51 -15 -15 -15 -205 -423 -205 -440 0 -33 -28 18
-114 211 -82 183 -104 223 -127 235 -31 17 -36 17 -64 5z"/>
</g>
</svg>
