<?xml version="1.0" standalone="no"?>
<!DOCTYPE svg PUBLIC "-//W3C//DTD SVG 20010904//EN"
 "http://www.w3.org/TR/2001/REC-SVG-20010904/DTD/svg10.dtd">
<svg version="1.0" xmlns="http://www.w3.org/2000/svg"
 width="128.000000pt" height="128.000000pt" viewBox="0 0 128.000000 128.000000"
 preserveAspectRatio="xMidYMid meet">
<metadata>
Created by potrace 1.16, written by Peter Selinger 2001-2019
</metadata>
<g transform="translate(0.000000,128.000000) scale(0.100000,-0.100000)"
fill="#880808" stroke="none">
<path d="M39 1241 l-39 -39 0 -562 0 -562 39 -39 39 -39 562 0 562 0 39 39 39
39 0 562 0 562 -39 39 -39 39 -562 0 -562 0 -39 -39z m541 -301 c0 -5 -8 -10
-17 -10 -49 -1 -48 -10 34 -233 43 -119 81 -213 85 -209 9 9 148 402 148 418
0 7 -13 15 -30 19 -59 13 -28 25 65 25 94 0 125 -12 62 -24 l-33 -6 -109 -305
-109 -305 -32 0 -31 0 -103 287 c-56 159 -106 296 -111 305 -5 9 -22 19 -39
23 -65 14 -24 25 95 25 77 0 125 -4 125 -10z"/>
</g>
</svg>
