<?xml version="1.0" standalone="no"?>
<!DOCTYPE svg PUBLIC "-//W3C//DTD SVG 20010904//EN"
 "http://www.w3.org/TR/2001/REC-SVG-20010904/DTD/svg10.dtd">
<svg version="1.0" xmlns="http://www.w3.org/2000/svg"
 width="64.000000pt" height="64.000000pt" viewBox="0 0 64.000000 64.000000"
 preserveAspectRatio="xMidYMid meet">

<g transform="translate(0.000000,64.000000) scale(0.100000,-0.100000)"
fill="#FFFFFF" stroke="none">
<path d="M280 621 c0 -23 -21 -32 -58 -25 -19 4 -32 0 -41 -10 -10 -12 -31
-16 -80 -16 -39 0 -72 -5 -79 -12 -17 -17 -17 -429 0 -446 8 -8 49 -12 120
-12 l108 0 0 -29 c0 -25 -4 -30 -27 -33 -17 -2 -28 -9 -28 -18 0 -13 21 -15
125 -15 104 0 125 2 125 15 0 9 -11 16 -27 18 -24 3 -28 8 -28 33 l0 29 108 0
c71 0 112 4 120 12 17 17 17 429 0 446 -7 7 -40 12 -79 12 -49 0 -70 4 -80 16
-9 10 -22 14 -41 10 -37 -7 -58 2 -58 25 0 15 -7 19 -40 19 -33 0 -40 -4 -40
-19z m67 -10 c7 -26 51 -45 69 -30 21 17 57 -16 43 -40 -14 -21 5 -71 26 -71
9 0 15 -9 15 -25 0 -16 -6 -25 -15 -25 -21 0 -40 -50 -26 -71 14 -24 -22 -57
-43 -40 -18 15 -62 -4 -69 -30 -7 -25 -47 -25 -54 0 -7 26 -51 45 -69 30 -21
-17 -57 16 -43 40 14 21 -5 71 -26 71 -9 0 -15 9 -15 25 0 16 6 25 15 25 21 0
40 50 26 71 -14 24 22 57 43 40 18 -15 62 4 69 30 7 25 47 25 54 0z m-202 -57
c-47 -7 -113 -8 -108 -1 2 4 32 6 66 6 34 -1 53 -3 42 -5z m458 -1 c3 -5 -16
-7 -41 -5 -80 5 -90 9 -25 11 34 0 64 -2 66 -6z m-430 -44 c-3 -11 -16 -25
-29 -30 -36 -13 -30 -79 6 -79 22 0 30 -28 16 -53 -9 -15 -6 -23 18 -43 21
-19 31 -22 42 -14 19 16 54 2 54 -21 0 -16 7 -19 40 -19 33 0 40 3 40 19 0 23
35 37 54 21 11 -8 21 -5 42 14 24 20 27 28 18 43 -14 25 -6 53 16 53 36 0 42
66 6 79 -13 5 -26 19 -29 30 -5 20 -1 21 59 21 l64 0 0 -150 0 -150 -270 0
-270 0 0 150 0 150 64 0 c60 0 64 -1 59 -21z m-80 -306 c-7 -2 -21 -2 -30 0
-10 3 -4 5 12 5 17 0 24 -2 18 -5z m385 0 c-64 -2 -172 -2 -240 0 -68 1 -15 3
117 3 132 0 187 -2 123 -3z m142 -46 c0 -46 -8 -47 -300 -47 -292 0 -300 1
-300 47 l0 23 300 0 300 0 0 -23z m-250 -87 c0 -29 -1 -30 -50 -30 -49 0 -50
1 -50 30 0 29 1 30 50 30 49 0 50 -1 50 -30z m65 -50 c-8 -13 -222 -13 -230 0
-4 6 37 10 115 10 78 0 119 -4 115 -10z"/>
<path d="M194 486 c-3 -8 -4 -31 -2 -52 l3 -39 53 -2 c50 -1 52 0 53 25 l1 27
10 -27 c5 -16 16 -28 24 -28 7 0 20 12 28 28 l15 27 1 -27 c0 -18 5 -28 15
-28 8 0 15 7 15 15 0 8 4 15 9 15 12 0 41 29 41 40 0 40 -91 55 -111 18 l-12
-22 -8 22 c-11 30 -54 30 -70 0 l-12 -23 -10 23 c-11 25 -35 29 -43 8z m29
-21 c4 -8 2 -17 -3 -20 -6 -4 -10 3 -10 14 0 25 6 27 13 6z"/>
<path d="M307 164 c-14 -15 -6 -34 14 -34 14 0 19 5 17 17 -3 18 -20 27 -31
17z"/>
</g>
</svg>
